# xmcd CD database file
#
# Track frame offsets:
#	150
#	12322
#	20681
#	37744
#	57815
#	71203
#	86070
#	107134
#	123314
#	143767
#	158314
#	173355
#	195245
#	208699
#	220922
#	233636
#
# Disc length: 3426 seconds
#
# Revision: 0
# Processed by: cddbd v1.5.2PL0 Copyright (c) Steve Scherf et al.
# Submitted via: CDex 1.70beta2
#
DISCID=ca0d6010
DTITLE=Helmut Kagerer, Helmut Nieberler - Flashes
DYEAR=2000
DGENRE=Jazz
TTITLE0=In A Mist
TTITLE1=Flashes
TTITLE2=Hackensack
TTITLE3=Lullaby of Birdland
TTITLE4=From A - Z
TTITLE5=About Birds and Bees
TTITLE6=Jitterbug Waltz
TTITLE7=Mind The Step
TTITLE8=Milano
TTITLE9=Mango
TTITLE10=Prelude # 3
TTITLE11=Courtship
TTITLE12=Bucky Bucky Pizzarelli
TTITLE13=Scrambled Eggs
TTITLE14=Valse A Nieb
TTITLE15=Swing For Django
EXTD=YEAR: 2000
EXTT0=
EXTT1=
EXTT2=
EXTT3=
EXTT4=
EXTT5=
EXTT6=
EXTT7=
EXTT8=
EXTT9=
EXTT10=
EXTT11=
EXTT12=
EXTT13=
EXTT14=
EXTT15=
PLAYORDER=
